<svg width="31" height="30" viewBox="0 0 31 30" fill="none" xmlns="http://www.w3.org/2000/svg">
<g id="icon_tiktok">
<rect id="bg" x="0.666748" width="30" height="30" rx="15" fill="#192140"/>
<path id="icon" d="M23.6667 12.7916C22.094 12.7955 20.5597 12.2859 19.2808 11.3347V17.9686C19.2804 19.1972 18.919 20.3965 18.2448 21.4059C17.5707 22.4154 16.6161 23.187 15.5085 23.6175C14.401 24.048 13.1933 24.1169 12.047 23.8151C10.9008 23.5132 9.87052 22.8549 9.09405 21.9282C8.31757 21.0015 7.83188 19.8506 7.70193 18.6294C7.57197 17.4082 7.80394 16.1749 8.36682 15.0943C8.9297 14.0138 9.79666 13.1375 10.8518 12.5828C11.9069 12.028 13.0999 11.8211 14.2712 11.9898V15.3264C13.7352 15.1513 13.1596 15.1565 12.6267 15.3415C12.0937 15.5265 11.6307 15.8817 11.3036 16.3564C10.9766 16.8312 10.8023 17.4011 10.8056 17.9849C10.8089 18.5687 10.9896 19.1365 11.3221 19.6072C11.6545 20.0779 12.1215 20.4274 12.6565 20.6059C13.1915 20.7843 13.7671 20.7825 14.3011 20.6008C14.835 20.4191 15.3001 20.0667 15.6298 19.594C15.9595 19.1213 16.1371 18.5524 16.1371 17.9686V5H19.2808C19.2787 5.27584 19.3009 5.55131 19.3473 5.82292C19.4565 6.42925 19.6837 7.00605 20.0148 7.51804C20.346 8.03003 20.7742 8.46644 21.2732 8.80059C21.9832 9.28837 22.8156 9.54835 23.6667 9.54816V12.7916Z" fill="white"/>
</g>
</svg>
