<svg width="31" height="30" viewBox="0 0 31 30" fill="none" xmlns="http://www.w3.org/2000/svg">
<g id="icon_insta">
<rect id="bg" x="0.333252" width="30" height="30" rx="15" fill="#192140"/>
<path id="icon" d="M12.334 15C12.334 13.3432 13.6768 11.9998 15.3336 11.9998C16.9905 11.9998 18.334 13.3432 18.334 15C18.334 16.6568 16.9905 18.0002 15.3336 18.0002C13.6768 18.0002 12.334 16.6568 12.334 15ZM10.712 15C10.712 17.5524 12.7811 19.6214 15.3336 19.6214C17.8861 19.6214 19.9552 17.5524 19.9552 15C19.9552 12.4476 17.8861 10.3786 15.3336 10.3786C12.7811 10.3786 10.7121 12.4475 10.7121 15H10.712ZM19.0582 10.1954C19.0581 10.409 19.1214 10.6178 19.24 10.7955C19.3586 10.9731 19.5272 11.1116 19.7245 11.1934C19.9218 11.2752 20.139 11.2967 20.3485 11.2551C20.558 11.2136 20.7505 11.1108 20.9016 10.9598C21.0527 10.8088 21.1557 10.6164 21.1975 10.4069C21.2392 10.1974 21.2179 9.98026 21.1362 9.78288C21.0546 9.5855 20.9162 9.41678 20.7386 9.29806C20.5611 9.17929 20.3523 9.11589 20.1387 9.11583H20.1382C19.8519 9.11595 19.5774 9.22972 19.3748 9.4321C19.1723 9.63455 19.0584 9.90908 19.0582 10.1954ZM11.6975 22.3258C10.82 22.2859 10.343 22.1397 10.0261 22.0163C9.60588 21.8527 9.30607 21.6578 8.99081 21.3431C8.67558 21.0283 8.48045 20.7287 8.31758 20.3086C8.19402 19.9918 8.04786 19.5147 8.00797 18.6372C7.96433 17.6886 7.95562 17.4036 7.95562 15.0001C7.95562 12.5967 7.96506 12.3125 8.00797 11.363C8.04793 10.4856 8.19517 10.0095 8.31758 9.69173C8.48117 9.27152 8.67601 8.97171 8.99081 8.65651C9.30558 8.3413 9.60516 8.14618 10.0261 7.98332C10.3429 7.85976 10.82 7.7136 11.6975 7.67371C12.6462 7.63008 12.9312 7.62137 15.3336 7.62137C17.7361 7.62137 18.0213 7.63066 18.9708 7.67386C19.8483 7.71382 20.3245 7.86106 20.6422 7.98346C21.0625 8.14632 21.3623 8.34187 21.6775 8.65666C21.9927 8.97147 22.1872 9.2717 22.3507 9.69185C22.4743 10.0087 22.6205 10.4858 22.6604 11.3632C22.704 12.3127 22.7127 12.5968 22.7127 15.0003C22.7127 17.4037 22.704 17.6879 22.6604 18.6374C22.6204 19.5148 22.4735 19.9918 22.3507 20.3087C22.1872 20.7289 21.9923 21.0287 21.6775 21.3432C21.3627 21.6577 21.0625 21.8528 20.6422 22.0164C20.3255 22.1399 19.8483 22.2861 18.9708 22.326C18.0222 22.3696 17.7371 22.3783 15.3336 22.3783C12.9301 22.3783 12.6459 22.3696 11.6975 22.326V22.3258ZM11.6229 6.05451C10.6648 6.09814 10.0101 6.25006 9.4383 6.47254C8.84651 6.70229 8.34487 7.01052 7.84395 7.51063C7.34302 8.01074 7.03557 8.51244 6.80581 9.10491C6.58331 9.67701 6.43139 10.3314 6.38776 11.2895C6.3434 12.2491 6.33325 12.5559 6.33325 15C6.33325 17.4441 6.3434 17.7509 6.38776 18.7105C6.43139 19.6687 6.58331 20.3229 6.80581 20.8951C7.03557 21.4869 7.34309 21.9895 7.84395 22.4894C8.34479 22.9893 8.84579 23.2971 9.4383 23.5275C10.0112 23.75 10.6648 23.9019 11.6229 23.9455C12.5831 23.9891 12.8894 24 15.3336 24C17.7778 24 18.0847 23.9899 19.0443 23.9455C20.0025 23.9019 20.6568 23.75 21.229 23.5275C21.8207 23.2971 22.3224 22.9895 22.8233 22.4894C23.3242 21.9892 23.631 21.4869 23.8614 20.8951C24.0839 20.3229 24.2366 19.6686 24.2795 18.7105C24.3231 17.7502 24.3333 17.4441 24.3333 15C24.3333 12.5559 24.3231 12.2491 24.2795 11.2895C24.2358 10.3313 24.0839 9.67671 23.8614 9.10491C23.631 8.51316 23.3234 8.01154 22.8233 7.51063C22.3231 7.00973 21.8207 6.70229 21.2297 6.47254C20.6568 6.25006 20.0024 6.09742 19.045 6.05451C18.0852 6.01066 17.7786 6 15.3347 6C12.8909 6 12.5834 6.01015 11.6233 6.05451" fill="white"/>
</g>
</svg>
