<svg width="31" height="30" viewBox="0 0 31 30" fill="none" xmlns="http://www.w3.org/2000/svg">
<g id="icon_whatsup">
<circle id="bg" cx="15.3333" cy="15" r="15" fill="#192140"/>
<path id="icon" d="M22.1775 10.6999C19.7775 6.99988 14.8775 5.89988 11.0775 8.19988C7.37747 10.4999 6.17747 15.4999 8.57747 19.1999L8.77747 19.4999L7.97747 22.4999L10.9775 21.6999L11.2775 21.8999C12.5775 22.5999 13.9775 22.9999 15.3775 22.9999C16.8775 22.9999 18.3775 22.5999 19.6775 21.7999C23.3775 19.3999 24.4775 14.4999 22.1775 10.6999ZM20.0775 18.3999C19.6775 18.9999 19.1775 19.3999 18.4775 19.4999C18.0775 19.4999 17.5775 19.6999 15.5775 18.8999C13.8775 18.0999 12.4775 16.7999 11.4775 15.2999C10.8775 14.5999 10.5775 13.6999 10.4775 12.7999C10.4775 11.9999 10.7775 11.2999 11.2775 10.7999C11.4775 10.5999 11.6775 10.4999 11.8775 10.4999H12.3775C12.5775 10.4999 12.7775 10.4999 12.8775 10.8999C13.0775 11.3999 13.5775 12.5999 13.5775 12.6999C13.6775 12.7999 13.6775 12.9999 13.5775 13.0999C13.6775 13.2999 13.5775 13.4999 13.4775 13.5999C13.3775 13.6999 13.2775 13.8999 13.1775 13.9999C12.9775 14.0999 12.8775 14.2999 12.9775 14.4999C13.3775 15.0999 13.8775 15.6999 14.3775 16.1999C14.9775 16.6999 15.5775 17.0999 16.2775 17.3999C16.4775 17.4999 16.6775 17.4999 16.7775 17.2999C16.8775 17.0999 17.3775 16.5999 17.5775 16.3999C17.7775 16.1999 17.8775 16.1999 18.0775 16.2999L19.6775 17.0999C19.8775 17.1999 20.0775 17.2999 20.1775 17.3999C20.2775 17.6999 20.2775 18.0999 20.0775 18.3999Z" fill="white"/>
</g>
</svg>
